<?xml version="1.0" encoding="utf-8"?>
<!-- Generator: Adobe Illustrator 23.0.3, SVG Export Plug-In . SVG Version: 6.00 Build 0)  -->
<svg version="1.1" xmlns="http://www.w3.org/2000/svg" xmlns:xlink="http://www.w3.org/1999/xlink" x="0px" y="0px"
	 viewBox="0 0 623.6 737" style="enable-background:new 0 0 623.6 737;" xml:space="preserve">
<style type="text/css">
	.st0{display:none;}
	.st1{display:inline;fill:none;stroke:#000000;stroke-miterlimit:10;}
	.st2{display:inline;fill:none;stroke:#FF0000;stroke-miterlimit:10;}
	.st3{display:inline;}
	.st4{stroke:#0000FF;stroke-miterlimit:10;}
	.st5{fill:none;stroke:#000000;stroke-miterlimit:10;}
</style>
<g id="acrylic_bottles" class="st0">
</g>
<g id="guides" class="st0">
</g>
<g id="acrylic_frame" class="st0">
</g>
<g id="lipo_battery_frame" class="st0">
</g>
<g id="lipo_batteries" class="st0">
</g>
<g id="glue_frame">
	<path id="tab_holder_top_3_" class="st5" d="M507.4,311.8H93.5c-3.1,0-5.7-2.6-5.7-5.7l0,0c0-3.1,2.6-5.7,5.7-5.7h413.9
		c3.1,0,5.7,2.6,5.7,5.7l0,0C513.1,309.3,510.5,311.8,507.4,311.8z"/>
	<path id="tab_holder_top_2_" class="st5" d="M507.4,234.6H93.5c-3.1,0-5.7-2.6-5.7-5.7v0c0-3.1,2.6-5.7,5.7-5.7h413.9
		c3.1,0,5.7,2.6,5.7,5.7v0C513.1,232,510.5,234.6,507.4,234.6z"/>
	<path id="side_piece_3_" class="st5" d="M570.8,329.5H27.8c-6.6,0-12-5.4-12-12V143.1c0-6.6,5.4-12,12-12h542.9c6.6,0,12,5.4,12,12
		v174.4C582.8,324.1,577.4,329.5,570.8,329.5z"/>
	<path id="tab_holder_top_5_" class="st5" d="M507.2,510.2H93.4c-3.1,0-5.7-2.6-5.7-5.7l0,0c0-3.1,2.6-5.7,5.7-5.7h413.9
		c3.1,0,5.7,2.6,5.7,5.7l0,0C512.9,507.7,510.3,510.2,507.2,510.2z"/>
	<path id="tab_holder_top_4_" class="st5" d="M507.2,433H93.4c-3.1,0-5.7-2.6-5.7-5.7v0c0-3.1,2.6-5.7,5.7-5.7h413.9
		c3.1,0,5.7,2.6,5.7,5.7v0C512.9,430.4,510.3,433,507.2,433z"/>
	<path id="side_piece_2_" class="st5" d="M570.6,528H27.7c-6.6,0-12-5.4-12-12V341.5c0-6.6,5.4-12,12-12h542.9c6.6,0,12,5.4,12,12
		V516C582.6,522.6,577.2,528,570.6,528z"/>
</g>
<g id="AA_side_walls">
	<path id="tab_holder_top_9_" class="st5" d="M507.4,311.8H93.5c-3.1,0-5.7-2.6-5.7-5.7l0,0c0-3.1,2.6-5.7,5.7-5.7h413.9
		c3.1,0,5.7,2.6,5.7,5.7l0,0C513.1,309.3,510.5,311.8,507.4,311.8z"/>
	<path id="tab_holder_top_8_" class="st5" d="M507.4,234.6H93.5c-3.1,0-5.7-2.6-5.7-5.7v0c0-3.1,2.6-5.7,5.7-5.7h413.9
		c3.1,0,5.7,2.6,5.7,5.7v0C513.1,232,510.5,234.6,507.4,234.6z"/>
	<path id="side_piece_5_" class="st5" d="M570.8,329.5H27.8c-6.6,0-12-5.4-12-12V143.1c0-6.6,5.4-12,12-12h542.9c6.6,0,12,5.4,12,12
		v174.4C582.8,324.1,577.4,329.5,570.8,329.5z"/>
	<path id="tab_holder_top_7_" class="st5" d="M507.2,510.2H93.4c-3.1,0-5.7-2.6-5.7-5.7l0,0c0-3.1,2.6-5.7,5.7-5.7h413.9
		c3.1,0,5.7,2.6,5.7,5.7l0,0C512.9,507.7,510.3,510.2,507.2,510.2z"/>
	<path id="tab_holder_top_6_" class="st5" d="M507.2,433H93.4c-3.1,0-5.7-2.6-5.7-5.7v0c0-3.1,2.6-5.7,5.7-5.7h413.9
		c3.1,0,5.7,2.6,5.7,5.7v0C512.9,430.4,510.3,433,507.2,433z"/>
	<path id="side_piece_4_" class="st5" d="M570.6,528H27.7c-6.6,0-12-5.4-12-12V341.5c0-6.6,5.4-12,12-12h542.9c6.6,0,12,5.4,12,12
		V516C582.6,522.6,577.2,528,570.6,528z"/>
</g>
<g id="AA_x2C__AAA_x2C__C_batteries" class="st0">
</g>
<g id="glue_bottles" class="st0">
</g>
</svg>
