<svg xmlns="http://www.w3.org/2000/svg" width="495.3mm" height="279.4mm" viewBox="0 0 1404 792">
  <defs>
    <style>
      .cls-1, .cls-2 {
        fill: none;
        stroke-miterlimit: 10;
      }

      .cls-1 {
        stroke: #000;
      }

      .cls-2 {
        stroke: #ec2024;
        stroke-width: 3px;
      }

      .cls-3 {
        fill: #ec2024;
      }
    </style>
  </defs>
  <g id="glue_bottles" data-name="glue bottles">
    <path id="bottom_piece" data-name="bottom piece" class="cls-1" d="M973.42,55.84h-59.1a7.4,7.4,0,0,0,.23-1.77V34.23a7.11,7.11,0,0,0-7.09-7.09h-411a7.11,7.11,0,0,0-7.09,7.09V54.07a6.93,6.93,0,0,0,.24,1.77h-59.1a12,12,0,0,0-12,12V724.16a12,12,0,0,0,12,12h59.1a6.93,6.93,0,0,0-.24,1.77v19.84a7.11,7.11,0,0,0,7.09,7.09h411a7.11,7.11,0,0,0,7.09-7.09V737.93a7.4,7.4,0,0,0-.23-1.77h59.1a12,12,0,0,0,12-12V67.84A12,12,0,0,0,973.42,55.84Z"/>
    <circle class="cls-1" cx="514.33" cy="596.16" r="14.88"/>
    <circle class="cls-1" cx="471.22" cy="596.16" r="14.88"/>
    <circle class="cls-1" cx="675.67" cy="105.53" r="14.88"/>
    <circle class="cls-1" cx="600.55" cy="596.16" r="14.88"/>
    <circle class="cls-1" cx="557.44" cy="596.16" r="14.88"/>
    <circle class="cls-1" cx="718.78" cy="105.53" r="14.88"/>
    <circle class="cls-1" cx="761.89" cy="105.53" r="14.88"/>
    <circle class="cls-1" cx="463.7" cy="300.95" r="20.55"/>
    <circle class="cls-1" cx="532.01" cy="300.95" r="20.55"/>
    <circle class="cls-1" cx="617.56" cy="300.44" r="20.55"/>
    <circle class="cls-1" cx="685.87" cy="300.44" r="20.55"/>
    <circle class="cls-1" cx="754.17" cy="300.44" r="20.55"/>
    <circle class="cls-1" cx="822.47" cy="300.44" r="20.55"/>
    <circle class="cls-1" cx="890.78" cy="300.44" r="20.55"/>
    <circle class="cls-1" cx="514.33" cy="641.39" r="14.88"/>
    <circle class="cls-1" cx="471.22" cy="641.39" r="14.88"/>
    <circle class="cls-1" cx="514.33" cy="686.63" r="14.88"/>
    <circle class="cls-1" cx="471.22" cy="686.63" r="14.88"/>
    <circle class="cls-1" cx="848.11" cy="105.53" r="14.88"/>
    <circle class="cls-1" cx="805" cy="105.53" r="14.88"/>
    <circle class="cls-1" cx="600.55" cy="641.39" r="14.88"/>
    <circle class="cls-1" cx="557.44" cy="641.39" r="14.88"/>
    <circle class="cls-1" cx="718.78" cy="150.77" r="14.88"/>
    <circle class="cls-1" cx="675.67" cy="150.77" r="14.88"/>
    <circle class="cls-1" cx="805" cy="150.77" r="14.88"/>
    <circle class="cls-1" cx="761.89" cy="150.77" r="14.88"/>
    <circle class="cls-1" cx="891.22" cy="150.77" r="14.88"/>
    <circle class="cls-1" cx="848.11" cy="150.77" r="14.88"/>
    <circle class="cls-1" cx="891.22" cy="105.53" r="14.88"/>
    <circle class="cls-1" cx="600.55" cy="686.63" r="14.88"/>
    <circle class="cls-1" cx="557.44" cy="686.63" r="14.88"/>
    <circle class="cls-1" cx="891.22" cy="196" r="14.88"/>
    <circle class="cls-1" cx="848.11" cy="196" r="14.88"/>
    <circle class="cls-1" cx="718.78" cy="196" r="14.88"/>
    <circle class="cls-1" cx="675.67" cy="196" r="14.88"/>
    <circle class="cls-1" cx="805" cy="196" r="14.88"/>
    <circle class="cls-1" cx="761.89" cy="196" r="14.88"/>
    <circle class="cls-1" cx="463.7" cy="359.15" r="20.55"/>
    <circle class="cls-1" cx="532.01" cy="359.15" r="20.55"/>
    <circle class="cls-1" cx="617.56" cy="358.64" r="20.55"/>
    <circle class="cls-1" cx="685.87" cy="358.64" r="20.55"/>
    <circle class="cls-1" cx="754.17" cy="358.64" r="20.55"/>
    <circle class="cls-1" cx="822.47" cy="358.64" r="20.55"/>
    <circle class="cls-1" cx="890.78" cy="358.64" r="20.55"/>
    <circle class="cls-1" cx="463.7" cy="415.84" r="20.55"/>
    <circle class="cls-1" cx="532.01" cy="415.84" r="20.55"/>
    <circle class="cls-1" cx="617.56" cy="415.33" r="20.55"/>
    <circle class="cls-1" cx="685.87" cy="415.33" r="20.55"/>
    <circle class="cls-1" cx="754.17" cy="415.33" r="20.55"/>
    <circle class="cls-1" cx="822.47" cy="415.33" r="20.55"/>
    <circle class="cls-1" cx="890.78" cy="415.33" r="20.55"/>
    <circle class="cls-1" cx="463.7" cy="474.31" r="20.55"/>
    <circle class="cls-1" cx="532.01" cy="474.31" r="20.55"/>
    <circle class="cls-1" cx="617.56" cy="473.8" r="20.55"/>
    <circle class="cls-1" cx="685.87" cy="473.8" r="20.55"/>
    <circle class="cls-1" cx="754.17" cy="473.8" r="20.55"/>
    <circle class="cls-1" cx="822.47" cy="473.8" r="20.55"/>
    <circle class="cls-1" cx="890.78" cy="473.8" r="20.55"/>
    <path id="bottom_piece-2" data-name="bottom piece" class="cls-1" d="M973.42,55.84h-59.1a7.4,7.4,0,0,0,.23-1.77V34.23a7.11,7.11,0,0,0-7.09-7.09h-411a7.11,7.11,0,0,0-7.09,7.09V54.07a6.93,6.93,0,0,0,.24,1.77h-59.1a12,12,0,0,0-12,12V724.16a12,12,0,0,0,12,12h59.1a6.93,6.93,0,0,0-.24,1.77v19.84a7.11,7.11,0,0,0,7.09,7.09h411a7.11,7.11,0,0,0,7.09-7.09V737.93a7.4,7.4,0,0,0-.23-1.77h59.1a12,12,0,0,0,12-12V67.84A12,12,0,0,0,973.42,55.84Z"/>
    <circle class="cls-1" cx="514.33" cy="596.16" r="14.88"/>
    <circle class="cls-1" cx="471.22" cy="596.16" r="14.88"/>
    <circle class="cls-1" cx="675.67" cy="105.53" r="14.88"/>
    <circle class="cls-1" cx="600.55" cy="596.16" r="14.88"/>
    <circle class="cls-1" cx="557.44" cy="596.16" r="14.88"/>
    <circle class="cls-1" cx="718.78" cy="105.53" r="14.88"/>
    <circle class="cls-1" cx="761.89" cy="105.53" r="14.88"/>
    <circle class="cls-1" cx="463.7" cy="300.95" r="20.55"/>
    <circle class="cls-1" cx="532.01" cy="300.95" r="20.55"/>
    <circle class="cls-1" cx="617.56" cy="300.44" r="20.55"/>
    <circle class="cls-1" cx="685.87" cy="300.44" r="20.55"/>
    <circle class="cls-1" cx="754.17" cy="300.44" r="20.55"/>
    <circle class="cls-1" cx="822.47" cy="300.44" r="20.55"/>
    <circle class="cls-1" cx="890.78" cy="300.44" r="20.55"/>
    <circle class="cls-1" cx="514.33" cy="641.39" r="14.88"/>
    <circle class="cls-1" cx="471.22" cy="641.39" r="14.88"/>
    <circle class="cls-1" cx="514.33" cy="686.63" r="14.88"/>
    <circle class="cls-1" cx="471.22" cy="686.63" r="14.88"/>
    <circle class="cls-1" cx="848.11" cy="105.53" r="14.88"/>
    <circle class="cls-1" cx="805" cy="105.53" r="14.88"/>
    <circle class="cls-1" cx="600.55" cy="641.39" r="14.88"/>
    <circle class="cls-1" cx="557.44" cy="641.39" r="14.88"/>
    <circle class="cls-1" cx="718.78" cy="150.77" r="14.88"/>
    <circle class="cls-1" cx="675.67" cy="150.77" r="14.88"/>
    <circle class="cls-1" cx="805" cy="150.77" r="14.88"/>
    <circle class="cls-1" cx="761.89" cy="150.77" r="14.88"/>
    <circle class="cls-1" cx="891.22" cy="150.77" r="14.88"/>
    <circle class="cls-1" cx="848.11" cy="150.77" r="14.88"/>
    <circle class="cls-1" cx="891.22" cy="105.53" r="14.88"/>
    <circle class="cls-1" cx="600.55" cy="686.63" r="14.88"/>
    <circle class="cls-1" cx="557.44" cy="686.63" r="14.88"/>
    <circle class="cls-1" cx="891.22" cy="196" r="14.88"/>
    <circle class="cls-1" cx="848.11" cy="196" r="14.88"/>
    <circle class="cls-1" cx="718.78" cy="196" r="14.88"/>
    <circle class="cls-1" cx="675.67" cy="196" r="14.88"/>
    <circle class="cls-1" cx="805" cy="196" r="14.88"/>
    <circle class="cls-1" cx="761.89" cy="196" r="14.88"/>
    <circle class="cls-1" cx="463.7" cy="359.15" r="20.55"/>
    <circle class="cls-1" cx="532.01" cy="359.15" r="20.55"/>
    <circle class="cls-1" cx="617.56" cy="358.64" r="20.55"/>
    <circle class="cls-1" cx="685.87" cy="358.64" r="20.55"/>
    <circle class="cls-1" cx="754.17" cy="358.64" r="20.55"/>
    <circle class="cls-1" cx="822.47" cy="358.64" r="20.55"/>
    <circle class="cls-1" cx="890.78" cy="358.64" r="20.55"/>
    <circle class="cls-1" cx="463.7" cy="415.84" r="20.55"/>
    <circle class="cls-1" cx="532.01" cy="415.84" r="20.55"/>
    <circle class="cls-1" cx="617.56" cy="415.33" r="20.55"/>
    <circle class="cls-1" cx="685.87" cy="415.33" r="20.55"/>
    <circle class="cls-1" cx="754.17" cy="415.33" r="20.55"/>
    <circle class="cls-1" cx="822.47" cy="415.33" r="20.55"/>
    <circle class="cls-1" cx="890.78" cy="415.33" r="20.55"/>
    <circle class="cls-1" cx="463.7" cy="474.31" r="20.55"/>
    <circle class="cls-1" cx="532.01" cy="474.31" r="20.55"/>
    <circle class="cls-1" cx="617.56" cy="473.8" r="20.55"/>
    <circle class="cls-1" cx="685.87" cy="473.8" r="20.55"/>
    <circle class="cls-1" cx="754.17" cy="473.8" r="20.55"/>
    <circle class="cls-1" cx="822.47" cy="473.8" r="20.55"/>
    <circle class="cls-1" cx="890.78" cy="473.8" r="20.55"/>
    <line class="cls-2" x1="441.1" y1="545.72" x2="947.8" y2="545.72"/>
    <line class="cls-2" x1="581.06" y1="545.72" x2="581.06" y2="86.87"/>
    <g>
      <path class="cls-3" d="M972.62,248.14a22.3,22.3,0,0,1,.33,4c0,2.23-.41,3.67-1.32,4.68a4,4,0,0,1-3.07,1.27,4.24,4.24,0,0,1-4.13-3.05h-.07c-.43,1.25-1.59,2-3.27,2.38a25.85,25.85,0,0,0-4.44,1.25v-2.16a20.1,20.1,0,0,1,3.87-1.08c2.23-.48,3.07-1.35,3.14-3.24v-2h-7v-2.09Zm-7.37,2.09v2.13c0,2.24,1.22,3.65,3.07,3.65,2.09,0,3-1.51,3-3.72a8.32,8.32,0,0,0-.19-2.06Z"/>
      <path class="cls-3" d="M962.08,262.25a3.72,3.72,0,0,0-4,4,7.54,7.54,0,0,0,.6,3.21l-1.51.36a9.26,9.26,0,0,1-.73-3.86c0-3.58,2.36-5.72,5.86-5.72s6.27,2.07,6.27,5.45c0,3.8-3.34,4.8-5.48,4.8a7,7,0,0,1-1-.07Zm1.51,6.19c1.34,0,3.43-.55,3.43-2.92,0-2.14-2-3.08-3.43-3.25Z"/>
      <path class="cls-3" d="M957.09,281.38a7.74,7.74,0,0,1-.68-3.34c0-3.5,2.38-5.78,5.93-5.78a5.9,5.9,0,0,1,6.17,6.24,7,7,0,0,1-.6,2.93l-1.63-.48a4.91,4.91,0,0,0,.55-2.45c0-2.66-2-4.1-4.39-4.1-2.69,0-4.35,1.72-4.35,4a6,6,0,0,0,.58,2.59Z"/>
      <path class="cls-3" d="M973.7,283.85V286h-7.25V286a4,4,0,0,1,1.49,1.51,4.37,4.37,0,0,1,.6,2.16c0,1.56-1,4.06-5,4.06h-6.92v-2.11h6.68c1.87,0,3.45-.7,3.45-2.69a3,3,0,0,0-2.11-2.83,2.56,2.56,0,0,0-1-.15h-7v-2.11Z"/>
      <path class="cls-3" d="M956.65,303.6l1.47-.16v-.08a4.31,4.31,0,0,1-1.73-3.55,3.31,3.31,0,0,1,3.34-3.55c2.81,0,4.34,2.49,4.32,7h.24A2.39,2.39,0,0,0,967,300.6a5.77,5.77,0,0,0-.87-3l1.39-.48a7.15,7.15,0,0,1,1,3.81c0,3.56-2.43,4.42-4.76,4.42h-4.34a16.91,16.91,0,0,0-2.79.19Zm5.93-.31c0-2.3-.36-4.92-2.61-4.92a1.87,1.87,0,0,0-2,2,2.88,2.88,0,0,0,1.94,2.81,2.32,2.32,0,0,0,.68.12Z"/>
      <path class="cls-3" d="M964.65,308.74c1.36,0,2.54,0,3.62-.1v1.85l-2.28.07v.1a3.49,3.49,0,0,1,2.55,3.21,2.31,2.31,0,0,1-.08.61h-2a3.17,3.17,0,0,0,.07-.73,3,3,0,0,0-2.71-2.83,5.74,5.74,0,0,0-1-.09h-6.2v-2.09Z"/>
      <path class="cls-3" d="M968.27,326.4c-.84,0-1.77-.09-3.19-.09h-6.75c-2.66,0-4.29-.53-5.3-1.66a6.14,6.14,0,0,1-1.39-4.22,7.45,7.45,0,0,1,1-3.87l1.61.53a6.56,6.56,0,0,0-.92,3.41c0,2.16,1.13,3.74,4.06,3.74h1.3v-.05a4.13,4.13,0,0,1-1.95-3.69c0-2.88,2.45-4.95,5.67-4.95,3.93,0,6.17,2.57,6.17,5.24a3.86,3.86,0,0,1-2,3.62v0l1.75.1Zm-4.58-2.18a3.2,3.2,0,0,0,1-.12,3,3,0,0,0,2.23-3c0-2-1.7-3.46-4.39-3.46-2.28,0-4.18,1.15-4.18,3.43a3.09,3.09,0,0,0,2.16,2.93,3.69,3.69,0,0,0,1.13.17Z"/>
      <path class="cls-3" d="M956.65,336.24l1.47-.17V336a4.33,4.33,0,0,1-1.73-3.55,3.31,3.31,0,0,1,3.34-3.55c2.81,0,4.34,2.49,4.32,7h.24a2.39,2.39,0,0,0,2.69-2.64,5.74,5.74,0,0,0-.87-3l1.39-.48a7.15,7.15,0,0,1,1,3.81c0,3.56-2.43,4.42-4.76,4.42h-4.34a16.91,16.91,0,0,0-2.79.19Zm5.93-.31c0-2.3-.36-4.92-2.61-4.92a1.87,1.87,0,0,0-2,2,2.89,2.89,0,0,0,1.94,2.81,2.32,2.32,0,0,0,.68.12Z"/>
      <path class="cls-3" d="M956.65,341.28c.8.05,2,.1,3,.1H973.7v2.09h-7.3v0a4.34,4.34,0,0,1,2.14,4c0,2.87-2.4,4.92-5.93,4.89-4.16,0-6.22-2.62-6.22-5.21a4.15,4.15,0,0,1,2.18-3.89v-.07l-1.92-.09Zm4.66,2.19a3.86,3.86,0,0,0-.77.09,3.26,3.26,0,0,0-2.47,3.17c0,2.21,1.8,3.53,4.47,3.53,2.32,0,4.32-1.2,4.32-3.46a3.36,3.36,0,0,0-2.6-3.21,4,4,0,0,0-.86-.12Z"/>
      <path class="cls-3" d="M973.7,355v2.12H956.65V355Z"/>
      <path class="cls-3" d="M962.08,361.87a3.72,3.72,0,0,0-4,4,7.54,7.54,0,0,0,.6,3.21l-1.51.36a9.26,9.26,0,0,1-.73-3.86c0-3.58,2.36-5.71,5.86-5.71s6.27,2.06,6.27,5.45c0,3.79-3.34,4.8-5.48,4.8a6.7,6.7,0,0,1-1-.08Zm1.51,6.2c1.34,0,3.43-.56,3.43-2.93,0-2.14-2-3.07-3.43-3.24Z"/>
    </g>
    <g>
      <path class="cls-3" d="M954.66,603.31l-5.09-1.68v-2.16l16.18,5.5v2.52L949.57,613v-2.23l5.09-1.73Zm1.63,5.31L961,607c1-.36,2-.6,2.95-.84v0c-1-.24-1.95-.51-2.93-.82l-4.68-1.58Z"/>
      <path class="cls-3" d="M966.61,615.24v2.11h-17v-2.11Z"/>
      <path class="cls-3" d="M955.86,623v0c.4.29.91.7,1.32,1l4,3.41V630l-4.78-4.49-6.84,5.11v-2.57l5.57-4-1.2-1.08h-4.37v-2.08h17V623Z"/>
      <path class="cls-3" d="M949.57,639l1.46-.17v-.07a4.35,4.35,0,0,1-1.73-3.56,3.31,3.31,0,0,1,3.34-3.55c2.81,0,4.35,2.5,4.32,7h.24a2.4,2.4,0,0,0,2.69-2.64,5.89,5.89,0,0,0-.86-3l1.39-.48a7.24,7.24,0,0,1,1,3.82c0,3.55-2.42,4.41-4.75,4.41h-4.35a15.64,15.64,0,0,0-2.78.2Zm5.93-.32c0-2.3-.36-4.92-2.62-4.92a1.88,1.88,0,0,0-2,2,2.87,2.87,0,0,0,1.95,2.8,1.93,1.93,0,0,0,.67.12Z"/>
      <path class="cls-3" d="M966.61,644.16v2.11h-17v-2.11Z"/>
      <path class="cls-3" d="M949.57,649.82h11.62v2.12H949.57Zm14.88,2.36a1.31,1.31,0,0,1,0-2.62,1.29,1.29,0,0,1,1.32,1.32A1.26,1.26,0,0,1,964.45,652.18Z"/>
      <path class="cls-3" d="M958,655.44c1.2,0,2.19,0,3.15-.09v1.87l-1.92.12v0a4.27,4.27,0,0,1,2.18,3.84c0,1.6-1,4.1-4.94,4.1h-6.94v-2.11h6.69c1.88,0,3.44-.7,3.44-2.69a3.12,3.12,0,0,0-3.15-3h-7v-2.11Z"/>
      <path class="cls-3" d="M955,669.94a3.72,3.72,0,0,0-4,4,7.6,7.6,0,0,0,.6,3.22l-1.51.36a9.39,9.39,0,0,1-.72-3.87c0-3.57,2.35-5.71,5.85-5.71s6.27,2.06,6.27,5.45c0,3.79-3.34,4.8-5.47,4.8a9.22,9.22,0,0,1-1-.07Zm1.52,6.19c1.34,0,3.43-.55,3.43-2.93,0-2.14-2-3.07-3.43-3.24Z"/>
    </g>
    <g>
      <path class="cls-3" d="M780.22,536.34a10.47,10.47,0,0,1-4.28.77c-4.56,0-8-2.88-8-8.19a8,8,0,0,1,8.45-8.49,8.62,8.62,0,0,1,3.84.72l-.5,1.7a7.7,7.7,0,0,0-3.27-.67c-3.79,0-6.31,2.42-6.31,6.67,0,4,2.28,6.5,6.22,6.5a8.29,8.29,0,0,0,3.4-.67Z"/>
      <path class="cls-3" d="M784.92,520.69v6.77h7.82v-6.77h2.12v16.18h-2.12v-7.59h-7.82v7.59h-2.09V520.69Z"/>
      <path class="cls-3" d="M801.1,531.78l-1.68,5.09h-2.16l5.49-16.18h2.52l5.52,16.18h-2.23l-1.73-5.09Zm5.3-1.63-1.58-4.66c-.36-1.06-.6-2-.84-3h-.05c-.24,1-.51,1.94-.82,2.93l-1.58,4.68Z"/>
      <path class="cls-3" d="M813.17,520.91a21.35,21.35,0,0,1,4-.34c2.23,0,3.67.41,4.68,1.32a4,4,0,0,1,1.27,3.07,4.26,4.26,0,0,1-3,4.13v.07c1.25.43,2,1.59,2.38,3.27a26.15,26.15,0,0,0,1.24,4.44h-2.16a21.78,21.78,0,0,1-1.08-3.87c-.48-2.23-1.34-3.07-3.24-3.14h-2v7h-2.09Zm2.09,7.36h2.13c2.23,0,3.65-1.22,3.65-3.07,0-2.09-1.51-3-3.72-3a8.32,8.32,0,0,0-2.06.19Z"/>
      <path class="cls-3" d="M838.46,536.15a15.2,15.2,0,0,1-5,.88,7.6,7.6,0,0,1-8.31-8.16c0-4.82,3.34-8.35,8.76-8.35a9.88,9.88,0,0,1,4,.75l-.5,1.7a8.42,8.42,0,0,0-3.58-.7c-3.93,0-6.5,2.45-6.5,6.51s2.47,6.53,6.24,6.53a6.74,6.74,0,0,0,2.78-.44v-4.82h-3.28v-1.68h5.32Z"/>
      <path class="cls-3" d="M850,529.28h-6.29v5.83h7v1.76h-9.09V520.69h8.73v1.75h-6.65v5.11H850Z"/>
      <path class="cls-3" d="M853.46,520.91a28.87,28.87,0,0,1,4.44-.34c3,0,5.14.7,6.56,2a7.44,7.44,0,0,1,2.28,5.8,8.57,8.57,0,0,1-2.33,6.29c-1.51,1.51-4,2.33-7.15,2.33a33.93,33.93,0,0,1-3.8-.19Zm2.09,14.3a12.76,12.76,0,0,0,2.11.12c4.47,0,6.89-2.5,6.89-6.86,0-3.82-2.13-6.24-6.55-6.24a12,12,0,0,0-2.45.21Z"/>
    </g>
    <g>
      <path class="cls-3" d="M432.3,538.64V522.46h2.28l5.18,8.18a46.24,46.24,0,0,1,2.91,5.26l0,0c-.19-2.16-.24-4.13-.24-6.65v-6.77h2v16.18h-2.11l-5.14-8.21a53.76,53.76,0,0,1-3-5.4l-.07,0c.12,2,.17,4,.17,6.68v6.91Z"/>
      <path class="cls-3" d="M456.47,531.05h-6.29v5.84h7v1.75h-9.1V522.46h8.74v1.75h-6.65v5.11h6.29Z"/>
      <path class="cls-3" d="M468.27,531.05H462v5.84h7v1.75H459.9V522.46h8.73v1.75H462v5.11h6.28Z"/>
      <path class="cls-3" d="M471.71,522.68a28.77,28.77,0,0,1,4.44-.34c3,0,5.13.7,6.55,2a7.44,7.44,0,0,1,2.28,5.8,8.54,8.54,0,0,1-2.33,6.29c-1.51,1.52-4,2.33-7.15,2.33a33.61,33.61,0,0,1-3.79-.19Zm2.08,14.3a12.82,12.82,0,0,0,2.12.12c4.46,0,6.88-2.5,6.88-6.86,0-3.82-2.13-6.24-6.55-6.24a12,12,0,0,0-2.45.21Z"/>
      <path class="cls-3" d="M504.08,538.11a10.41,10.41,0,0,1-4.27.77c-4.56,0-8-2.88-8-8.19a8,8,0,0,1,8.45-8.49,8.69,8.69,0,0,1,3.84.72l-.51,1.7a7.65,7.65,0,0,0-3.26-.67c-3.8,0-6.32,2.42-6.32,6.67,0,4,2.28,6.51,6.22,6.51a8.34,8.34,0,0,0,3.41-.68Z"/>
      <path class="cls-3" d="M508.78,522.46v6.77h7.83v-6.77h2.11v16.18h-2.11v-7.59h-7.83v7.59H506.7V522.46Z"/>
      <path class="cls-3" d="M525,533.55l-1.68,5.09h-2.16l5.5-16.18h2.52l5.52,16.18h-2.24l-1.72-5.09Zm5.3-1.63-1.58-4.66c-.36-1.06-.6-2-.84-3h-.05c-.24,1-.5,1.94-.81,2.93l-1.59,4.68Z"/>
      <path class="cls-3" d="M537,522.68a21.43,21.43,0,0,1,4-.34c2.23,0,3.67.41,4.68,1.32a4,4,0,0,1,1.27,3.07,4.24,4.24,0,0,1-3,4.13v.07c1.25.43,2,1.59,2.38,3.27a25.85,25.85,0,0,0,1.25,4.44h-2.16a20.1,20.1,0,0,1-1.08-3.87c-.48-2.23-1.35-3.07-3.24-3.14h-2v7H537Zm2.09,7.36h2.14c2.23,0,3.64-1.22,3.64-3.07,0-2.09-1.51-3-3.72-3a8.45,8.45,0,0,0-2.06.19Z"/>
      <path class="cls-3" d="M562.33,537.92a15.28,15.28,0,0,1-5,.89,7.6,7.6,0,0,1-8.3-8.17c0-4.82,3.33-8.35,8.76-8.35a9.92,9.92,0,0,1,4,.75l-.51,1.7a8.4,8.4,0,0,0-3.57-.7c-3.94,0-6.51,2.45-6.51,6.51s2.48,6.53,6.24,6.53a6.85,6.85,0,0,0,2.79-.43v-4.83H557v-1.68h5.33Z"/>
      <path class="cls-3" d="M573.9,531.05h-6.29v5.84h7v1.75h-9.1V522.46h8.74v1.75h-6.65v5.11h6.29Z"/>
    </g>
    <circle class="cls-1" cx="679.81" cy="583.9" r="20.55"/>
    <circle class="cls-1" cx="748.12" cy="583.9" r="20.55"/>
    <circle class="cls-1" cx="816.42" cy="583.9" r="20.55"/>
    <circle class="cls-1" cx="884.73" cy="583.9" r="20.55"/>
    <circle class="cls-1" cx="679.81" cy="642.1" r="20.55"/>
    <circle class="cls-1" cx="748.12" cy="642.1" r="20.55"/>
    <circle class="cls-1" cx="816.42" cy="642.1" r="20.55"/>
    <circle class="cls-1" cx="884.73" cy="642.1" r="20.55"/>
    <circle class="cls-1" cx="679.81" cy="698.8" r="20.55"/>
    <circle class="cls-1" cx="748.12" cy="698.8" r="20.55"/>
    <circle class="cls-1" cx="816.42" cy="698.8" r="20.55"/>
    <circle class="cls-1" cx="884.73" cy="698.8" r="20.55"/>
    <circle class="cls-1" cx="679.81" cy="583.9" r="20.55"/>
    <circle class="cls-1" cx="748.12" cy="583.9" r="20.55"/>
    <circle class="cls-1" cx="816.42" cy="583.9" r="20.55"/>
    <circle class="cls-1" cx="884.73" cy="583.9" r="20.55"/>
    <circle class="cls-1" cx="679.81" cy="642.1" r="20.55"/>
    <circle class="cls-1" cx="748.12" cy="642.1" r="20.55"/>
    <circle class="cls-1" cx="816.42" cy="642.1" r="20.55"/>
    <circle class="cls-1" cx="884.73" cy="642.1" r="20.55"/>
    <circle class="cls-1" cx="679.81" cy="698.8" r="20.55"/>
    <circle class="cls-1" cx="748.12" cy="698.8" r="20.55"/>
    <circle class="cls-1" cx="816.42" cy="698.8" r="20.55"/>
    <circle class="cls-1" cx="884.73" cy="698.8" r="20.55"/>
    <circle class="cls-1" cx="630.67" cy="105.41" r="14.88"/>
    <circle class="cls-1" cx="630.67" cy="150.65" r="14.88"/>
    <circle class="cls-1" cx="630.67" cy="195.88" r="14.88"/>
    <circle class="cls-1" cx="630.67" cy="105.41" r="14.88"/>
    <circle class="cls-1" cx="630.67" cy="150.65" r="14.88"/>
    <circle class="cls-1" cx="630.67" cy="195.88" r="14.88"/>
    <circle class="cls-1" cx="517.99" cy="109.08" r="14.88"/>
    <circle class="cls-1" cx="517.99" cy="154.31" r="14.88"/>
    <circle class="cls-1" cx="517.99" cy="199.54" r="14.88"/>
    <circle class="cls-1" cx="517.99" cy="109.08" r="14.88"/>
    <circle class="cls-1" cx="517.99" cy="154.31" r="14.88"/>
    <circle class="cls-1" cx="517.99" cy="199.54" r="14.88"/>
    <circle class="cls-1" cx="472.99" cy="108.96" r="14.88"/>
    <circle class="cls-1" cx="472.99" cy="154.19" r="14.88"/>
    <circle class="cls-1" cx="472.99" cy="199.42" r="14.88"/>
    <circle class="cls-1" cx="472.99" cy="108.96" r="14.88"/>
    <circle class="cls-1" cx="472.99" cy="154.19" r="14.88"/>
    <circle class="cls-1" cx="472.99" cy="199.42" r="14.88"/>
  </g>
</svg>
