<?xml version="1.0" encoding="utf-8"?>
<!-- Generator: Adobe Illustrator 23.0.3, SVG Export Plug-In . SVG Version: 6.00 Build 0)  -->
<svg version="1.1" xmlns="http://www.w3.org/2000/svg" xmlns:xlink="http://www.w3.org/1999/xlink" x="0px" y="0px"
	 viewBox="0 0 1360.6 765.4" style="enable-background:new 0 0 1360.6 765.4;" xml:space="preserve">
<style type="text/css">
	.st0{display:none;}
	.st1{display:inline;fill:none;stroke:#000000;stroke-miterlimit:10;}
	.st2{display:inline;fill:none;stroke:#FF0000;stroke-miterlimit:10;}
	.st3{display:inline;}
	.st4{stroke:#0000FF;stroke-miterlimit:10;}
	.st5{fill:none;stroke:#000000;stroke-miterlimit:10;}
</style>
<g id="acrylic_bottles" class="st0">
</g>
<g id="guides" class="st0">
</g>
<g id="acrylic_frame" class="st0">
</g>
<g id="battery_frame" class="st0">
</g>
<g id="lipo_batteries" class="st0">
</g>
<g id="glue_frame" class="st0">
</g>
<g id="AA_x2C__AAA_x2C__C_batteries">
	<path id="bottom_piece_2_" class="st5" d="M565.8,42.9h-59.1c0.1-0.6,0.2-1.2,0.2-1.8V21.3c0-3.9-3.2-7.1-7.1-7.1h-411
		c-3.9,0-7.1,3.2-7.1,7.1v19.8c0,0.6,0.1,1.2,0.2,1.8H22.9c-6.6,0-12,5.4-12,12v656.3c0,6.6,5.4,12,12,12H82
		c-0.1,0.6-0.2,1.2-0.2,1.8v19.8c0,3.9,3.2,7.1,7.1,7.1h411c3.9,0,7.1-3.2,7.1-7.1V725c0-0.6-0.1-1.2-0.2-1.8h59.1
		c6.6,0,12-5.4,12-12V54.9C577.8,48.3,572.4,42.9,565.8,42.9z"/>
	<path id="top_piece_3_" class="st5" d="M1132.7,42.2h-59.1c0.1-0.6,0.2-1.2,0.2-1.8V20.6c0-3.9-3.2-7.1-7.1-7.1h-411
		c-3.9,0-7.1,3.2-7.1,7.1v19.8c0,0.6,0.1,1.2,0.2,1.8h-59.1c-6.6,0-12,5.4-12,12v656.3c0,6.6,5.4,12,12,12h59.1
		c-0.1,0.6-0.2,1.2-0.2,1.8v19.8c0,3.9,3.2,7.1,7.1,7.1h411c3.9,0,7.1-3.2,7.1-7.1v-19.8c0-0.6-0.1-1.2-0.2-1.8h59.1
		c6.6,0,12-5.4,12-12V54.2C1144.7,47.6,1139.3,42.2,1132.7,42.2z"/>
	<circle class="st5" cx="141.9" cy="93.1" r="14.9"/>
	<circle class="st5" cx="98.8" cy="93.1" r="14.9"/>
	<circle class="st5" cx="271.3" cy="93.1" r="14.9"/>
	<circle class="st5" cx="228.1" cy="93.1" r="14.9"/>
	<circle class="st5" cx="185" cy="93.1" r="14.9"/>
	<circle class="st5" cx="314.4" cy="93.1" r="14.9"/>
	<circle class="st5" cx="357.5" cy="93.1" r="14.9"/>
	<circle class="st5" cx="56.1" cy="288" r="20.6"/>
	<circle class="st5" cx="141.5" cy="663.3" r="37.1"/>
	<circle class="st5" cx="143.3" cy="574.3" r="37.1"/>
	<circle class="st5" cx="249.4" cy="573.9" r="37.1"/>
	<circle class="st5" cx="350.1" cy="573.9" r="37.1"/>
	<circle class="st5" cx="453.5" cy="573.9" r="37.1"/>
	<circle class="st5" cx="453.5" cy="663.3" r="37.1"/>
	<circle class="st5" cx="350.1" cy="663.3" r="37.1"/>
	<circle class="st5" cx="249.4" cy="663.3" r="37.1"/>
	<circle class="st5" cx="124.4" cy="288" r="20.6"/>
	<circle class="st5" cx="192.7" cy="288" r="20.6"/>
	<circle class="st5" cx="261" cy="288" r="20.6"/>
	<circle class="st5" cx="329.3" cy="288" r="20.6"/>
	<circle class="st5" cx="397.6" cy="288" r="20.6"/>
	<circle class="st5" cx="465.9" cy="288" r="20.6"/>
	<circle class="st5" cx="141.9" cy="138.3" r="14.9"/>
	<circle class="st5" cx="98.8" cy="138.3" r="14.9"/>
	<circle class="st5" cx="141.9" cy="183.5" r="14.9"/>
	<circle class="st5" cx="98.8" cy="183.5" r="14.9"/>
	<circle class="st5" cx="443.7" cy="93.1" r="14.9"/>
	<circle class="st5" cx="400.6" cy="93.1" r="14.9"/>
	<circle class="st5" cx="228.1" cy="138.3" r="14.9"/>
	<circle class="st5" cx="185" cy="138.3" r="14.9"/>
	<circle class="st5" cx="314.4" cy="138.3" r="14.9"/>
	<circle class="st5" cx="271.3" cy="138.3" r="14.9"/>
	<circle class="st5" cx="400.6" cy="138.3" r="14.9"/>
	<circle class="st5" cx="357.5" cy="138.3" r="14.9"/>
	<circle class="st5" cx="486.8" cy="138.3" r="14.9"/>
	<circle class="st5" cx="443.7" cy="138.3" r="14.9"/>
	<circle class="st5" cx="486.8" cy="93.1" r="14.9"/>
	<circle class="st5" cx="228.1" cy="183.5" r="14.9"/>
	<circle class="st5" cx="185" cy="183.5" r="14.9"/>
	<circle class="st5" cx="486.8" cy="183.5" r="14.9"/>
	<circle class="st5" cx="443.7" cy="183.5" r="14.9"/>
	<circle class="st5" cx="314.4" cy="183.5" r="14.9"/>
	<circle class="st5" cx="271.3" cy="183.5" r="14.9"/>
	<circle class="st5" cx="400.6" cy="183.5" r="14.9"/>
	<circle class="st5" cx="357.5" cy="183.5" r="14.9"/>
	<circle class="st5" cx="534.2" cy="288" r="20.6"/>
	<circle class="st5" cx="56.1" cy="346.2" r="20.6"/>
	<circle class="st5" cx="124.4" cy="346.2" r="20.6"/>
	<circle class="st5" cx="192.7" cy="346.2" r="20.6"/>
	<circle class="st5" cx="261" cy="346.2" r="20.6"/>
	<circle class="st5" cx="329.3" cy="346.2" r="20.6"/>
	<circle class="st5" cx="397.6" cy="346.2" r="20.6"/>
	<circle class="st5" cx="465.9" cy="346.2" r="20.6"/>
	<circle class="st5" cx="534.2" cy="346.2" r="20.6"/>
	<circle class="st5" cx="56.1" cy="402.9" r="20.6"/>
	<circle class="st5" cx="124.4" cy="402.9" r="20.6"/>
	<circle class="st5" cx="192.7" cy="402.9" r="20.6"/>
	<circle class="st5" cx="261" cy="402.9" r="20.6"/>
	<circle class="st5" cx="329.3" cy="402.9" r="20.6"/>
	<circle class="st5" cx="397.6" cy="402.9" r="20.6"/>
	<circle class="st5" cx="465.9" cy="402.9" r="20.6"/>
	<circle class="st5" cx="534.2" cy="402.9" r="20.6"/>
	<circle class="st5" cx="56.1" cy="461.3" r="20.6"/>
	<circle class="st5" cx="124.4" cy="461.3" r="20.6"/>
	<circle class="st5" cx="192.7" cy="461.3" r="20.6"/>
	<circle class="st5" cx="261" cy="461.3" r="20.6"/>
	<circle class="st5" cx="329.3" cy="461.3" r="20.6"/>
	<circle class="st5" cx="397.6" cy="461.3" r="20.6"/>
	<circle class="st5" cx="465.9" cy="461.3" r="20.6"/>
	<circle class="st5" cx="534.2" cy="461.3" r="20.6"/>
</g>
<g id="glue_bottles" class="st0">
</g>
</svg>
