<?xml version="1.0" encoding="utf-8"?>
<!-- Generator: Adobe Illustrator 22.0.1, SVG Export Plug-In . SVG Version: 6.00 Build 0)  -->
<svg version="1.1" xmlns="http://www.w3.org/2000/svg" xmlns:xlink="http://www.w3.org/1999/xlink" x="0px" y="0px"
	 viewBox="0 0 623.6 737" style="enable-background:new 0 0 623.6 737;" xml:space="preserve">
<style type="text/css">
	.st0{display:none;}
	.st1{display:inline;fill:none;stroke:#000000;stroke-miterlimit:10;}
	.st2{fill:none;stroke:#000000;stroke-miterlimit:10;}
</style>
<g id="acrylic_bottles" class="st0">
</g>
<g id="guides" class="st0">
</g>
<g id="acrylic_frame" class="st0">
</g>
<g id="glue_frame">
	<path class="st2" d="M570.8,329.5H27.8c-6.6,0-12-5.4-12-12V58.1c0-6.6,5.4-12,12-12h542.9c6.6,0,12,5.4,12,12v259.5
		C582.8,324.1,577.4,329.5,570.8,329.5z"/>
	<path class="st2" d="M507.4,311.8H93.5c-3.1,0-5.7-2.6-5.7-5.7l0,0c0-3.1,2.6-5.7,5.7-5.7h413.9c3.1,0,5.7,2.6,5.7,5.7l0,0
		C513.1,309.3,510.5,311.8,507.4,311.8z"/>
	<path class="st2" d="M507.4,181.4H93.5c-3.1,0-5.7-2.6-5.7-5.7l0,0c0-3.1,2.6-5.7,5.7-5.7h413.9c3.1,0,5.7,2.6,5.7,5.7l0,0
		C513.1,178.9,510.5,181.4,507.4,181.4z"/>
	<path class="st2" d="M570.8,613H27.8c-6.6,0-12-5.4-12-12V341.5c0-6.6,5.4-12,12-12h542.9c6.6,0,12,5.4,12,12V601
		C582.8,607.6,577.4,613,570.8,613z"/>
	<path class="st2" d="M506,596.7H95c-3.9,0-7.1-3.2-7.1-7.1v0c0-3.9,3.2-7.1,7.1-7.1h411c3.9,0,7.1,3.2,7.1,7.1v0
		C513.1,593.5,509.9,596.7,506,596.7z"/>
	<path class="st2" d="M506,466.3H95c-3.9,0-7.1-3.2-7.1-7.1v0c0-3.9,3.2-7.1,7.1-7.1h411c3.9,0,7.1,3.2,7.1,7.1v0
		C513.1,463.1,509.9,466.3,506,466.3z"/>
</g>
<g id="glue_bottles">
</g>
</svg>
