<?xml version="1.0" encoding="utf-8"?>
<!-- Generator: Adobe Illustrator 22.0.1, SVG Export Plug-In . SVG Version: 6.00 Build 0)  -->
<svg version="1.1" xmlns="http://www.w3.org/2000/svg" xmlns:xlink="http://www.w3.org/1999/xlink" x="0px" y="0px"
	 viewBox="0 0 1374.8 609.4" style="enable-background:new 0 0 1374.8 609.4;" xml:space="preserve">
<style type="text/css">
	.st0{fill:none;stroke:#000000;stroke-miterlimit:10;}
</style>
<g id="bottles">
	<circle id="bottle_1" class="st0" cx="409" cy="92.1" r="49.6"/>
	<circle id="bottle_3" class="st0" cx="536.5" cy="92.1" r="49.6"/>
	<circle id="bottle_5" class="st0" cx="664.1" cy="92.1" r="49.6"/>
	<circle id="bottle_7" class="st0" cx="791.6" cy="92.1" r="49.6"/>
	<circle id="bottle_9" class="st0" cx="919.2" cy="92.1" r="49.6"/>
	<circle id="bottle_2" class="st0" cx="437.3" cy="219.7" r="49.6"/>
	<circle id="bottle_4" class="st0" cx="564.9" cy="219.7" r="49.6"/>
	<circle id="bottle_6" class="st0" cx="692.4" cy="219.7" r="49.6"/>
	<ellipse id="bottle_8" class="st0" cx="821.8" cy="219.7" rx="47.8" ry="49.6"/>
	<circle id="bottle_10" class="st0" cx="951.1" cy="219.7" r="49.6"/>
</g>
<g id="guides">
</g>
<g id="frame">
	<path id="left_side" class="st0" d="M25.9,354.3h259.5c6.6,0,12-5.4,12-12V26.2c0-6.6-5.4-12-12-12H25.9c-6.6,0-12,5.4-12,12v316.2
		C13.9,348.9,19.3,354.3,25.9,354.3z"/>
	<path id="right_side" class="st0" d="M1074.7,354.3h259.5c6.6,0,12-5.4,12-12V26.2c0-6.6-5.4-12-12-12h-259.5c-6.6,0-12,5.4-12,12
		v316.2C1062.7,348.9,1068.1,354.3,1074.7,354.3z"/>
	<path class="st0" d="M1040.4,346.4h-10c-0.5,0-0.9,0-1.4,0.1v-27.9c0-6.6-5.4-12-12-12H343c-6.6,0-12,5.4-12,12v28.3
		c-1-0.3-2.1-0.4-3.1-0.4h-10c-6.6,0-12,5.4-12,12v174.4c0,6.6,5.4,12,12,12h10c1.1,0,2.1-0.2,3.1-0.4V578c0,6.6,5.4,12,12,12h674
		c6.6,0,12-5.4,12-12v-33.3c0.5,0.1,0.9,0.1,1.4,0.1h10c6.6,0,12-5.4,12-12V358.4C1052.4,351.8,1047,346.4,1040.4,346.4z"/>
	<path class="st0" d="M1040.8,54h-10c-0.5,0-0.9,0-1.4,0.1V26.2c0-6.6-5.4-12-12-12h-674c-6.6,0-12,5.4-12,12v28.3
		c-1-0.3-2.1-0.4-3.1-0.4h-10c-6.6,0-12,5.4-12,12v174.4c0,6.6,5.4,12,12,12h10c1.1,0,2.1-0.2,3.1-0.4v33.6c0,6.6,5.4,12,12,12h674
		c6.6,0,12-5.4,12-12v-33.3c0.5,0.1,0.9,0.1,1.4,0.1h10c6.6,0,12-5.4,12-12V66C1052.8,59.4,1047.4,54,1040.8,54z"/>
	<path class="st0" d="M254.8,326L254.8,326c0,3.9-3.2,7.1-7.1,7.1H63.5c-3.9,0-7.1-3.2-7.1-7.1l0,0c0-3.9,3.2-7.1,7.1-7.1h184.3
		C251.6,318.9,254.8,322.1,254.8,326z"/>
	<path class="st0" d="M254.8,198.4L254.8,198.4c0,3.9-3.2,7.1-7.1,7.1H63.5c-3.9,0-7.1-3.2-7.1-7.1v0c0-3.9,3.2-7.1,7.1-7.1h184.3
		C251.6,191.3,254.8,194.5,254.8,198.4z"/>
	<path class="st0" d="M1303.7,326L1303.7,326c0,3.9-3.2,7.1-7.1,7.1h-184.3c-3.9,0-7.1-3.2-7.1-7.1l0,0c0-3.9,3.2-7.1,7.1-7.1h184.3
		C1300.5,318.9,1303.7,322.1,1303.7,326z"/>
	<path class="st0" d="M1303.7,198.4L1303.7,198.4c0,3.9-3.2,7.1-7.1,7.1h-184.3c-3.9,0-7.1-3.2-7.1-7.1v0c0-3.9,3.2-7.1,7.1-7.1
		h184.3C1300.5,191.3,1303.7,194.5,1303.7,198.4z"/>
	<path class="st0" d="M1336.3,377.7h-263.6c-5.5,0-9.9-4.5-9.9-9.9v0c0-5.5,4.5-9.9,9.9-9.9h263.6c5.5,0,9.9,4.5,9.9,9.9v0
		C1346.2,373.3,1341.7,377.7,1336.3,377.7z"/>
	<path class="st0" d="M287.4,377.7H23.8c-5.5,0-9.9-4.5-9.9-9.9v0c0-5.5,4.5-9.9,9.9-9.9h263.6c5.5,0,9.9,4.5,9.9,9.9v0
		C297.4,373.3,292.9,377.7,287.4,377.7z"/>
</g>
</svg>
