<?xml version="1.0" encoding="utf-8"?>
<!-- Generator: Adobe Illustrator 22.1.0, SVG Export Plug-In . SVG Version: 6.00 Build 0)  -->
<svg version="1.1" xmlns="http://www.w3.org/2000/svg" xmlns:xlink="http://www.w3.org/1999/xlink" x="0px" y="0px"
	 viewBox="0 0 1360.6 609.4" style="enable-background:new 0 0 1360.6 609.4;" xml:space="preserve">
<style type="text/css">
	.st0{fill:none;stroke:#000000;stroke-miterlimit:10;}
	.st1{fill:none;stroke:#FF0000;stroke-miterlimit:10;}
	.st2{stroke:#0000FF;stroke-miterlimit:10;}
</style>
<g id="acrylic_bottles">
</g>
<g id="guides">
</g>
<g id="acrylic_frame">
</g>
<g id="battery_frame">
	<path class="st1" d="M509.6,44.3h-2.2V24.4c0-3.9-3.2-7.1-7.1-7.1H287.8c-3.9,0-7.1,3.2-7.1,7.1v19.8h-2.2c-6.6,0-12,5.4-12,12
		v314.4c0,6.6,5.4,12,12,12h2.3c-0.1,0.5-0.1,0.9-0.1,1.4v19.8c0,3.9,3.2,7.1,7.1,7.1h212.6c3.9,0,7.1-3.2,7.1-7.1v-19.8
		c0-0.5,0-1-0.1-1.4h2.3c6.6,0,12-5.4,12-12V56.3C521.6,49.7,516.2,44.3,509.6,44.3z"/>
	<path id="left_top_notch_2_" class="st0" d="M242.6,86.8H30c-3.9,0-7.1-3.2-7.1-7.1v0c0-3.9,3.2-7.1,7.1-7.1h212.6
		c3.9,0,7.1,3.2,7.1,7.1v0C249.7,83.6,246.5,86.8,242.6,86.8z"/>
	<path id="left_bottom_notch_2_" class="st0" d="M242.6,143.1H30c-3.9,0-7.1-3.2-7.1-7.1v0c0-3.9,3.2-7.1,7.1-7.1h212.6
		c3.9,0,7.1,3.2,7.1,7.1v0C249.7,140,246.5,143.1,242.6,143.1z"/>
	<path id="right_top_notch_2_" class="st0" d="M242.6,239.9H30c-3.9,0-7.1-3.2-7.1-7.1v0c0-3.9,3.2-7.1,7.1-7.1h212.6
		c3.9,0,7.1,3.2,7.1,7.1v0C249.7,236.7,246.5,239.9,242.6,239.9z"/>
	<path id="right_bottom_notch_2_" class="st0" d="M242.6,290.6H30c-3.9,0-7.1-3.2-7.1-7.1l0,0c0-3.9,3.2-7.1,7.1-7.1h212.6
		c3.9,0,7.1,3.2,7.1,7.1l0,0C249.7,287.4,246.5,290.6,242.6,290.6z"/>
	<path class="st1" d="M251.8,160.3H20.7c-6.6,0-12-5.4-12-12V30.6c0-6.6,5.4-12,12-12h231.1c6.6,0,12,5.4,12,12v117.7
		C263.8,154.9,258.4,160.3,251.8,160.3z"/>
	<path class="st1" d="M251.8,308.3H20.7c-6.6,0-12-5.4-12-12V178.5c0-6.6,5.4-12,12-12h231.1c6.6,0,12,5.4,12,12v117.7
		C263.8,302.9,258.4,308.3,251.8,308.3z"/>
	<path class="st1" d="M768.3,44.6h-2.2V24.8c0-3.9-3.2-7.1-7.1-7.1H546.4c-3.9,0-7.1,3.2-7.1,7.1v19.8h-2.2c-6.6,0-12,5.4-12,12V371
		c0,6.6,5.4,12,12,12h2.3c-0.1,0.5-0.1,0.9-0.1,1.4v19.8c0,3.9,3.2,7.1,7.1,7.1H759c3.9,0,7.1-3.2,7.1-7.1v-19.8c0-0.5,0-1-0.1-1.4
		h2.3c6.6,0,12-5.4,12-12V56.6C780.3,50,774.9,44.6,768.3,44.6z"/>
</g>
<g id="batteries">
	<rect id="_x36_00ma_slot_24_" x="292.7" y="91" class="st0" width="99.2" height="17"/>
	<rect id="_x36_00ma_slot_11_" x="293.8" y="239.2" class="st0" width="99.2" height="17"/>
	<rect id="_x36_00ma_slot_10_" x="403.8" y="209.5" class="st0" width="99.2" height="17"/>
	<rect id="_x36_00ma_slot_9_" x="293.8" y="209.5" class="st0" width="99.2" height="17"/>
	<rect id="_x36_00ma_slot_8_" x="403.8" y="179.9" class="st0" width="99.2" height="17"/>
	<rect id="_x36_00ma_slot_7_" x="293.8" y="179.9" class="st0" width="99.2" height="17"/>
	<rect id="_x36_00ma_slot_6_" x="403.8" y="150.3" class="st0" width="99.2" height="17"/>
	<rect id="_x36_00ma_slot_5_" x="293.8" y="150.3" class="st0" width="99.2" height="17"/>
	<rect id="_x36_00ma_slot_4_" x="403.8" y="120.6" class="st0" width="99.2" height="17"/>
	<rect id="_x36_00ma_slot_3_" x="293.8" y="120.6" class="st0" width="99.2" height="17"/>
	<rect id="_x36_00ma_slot_2_" x="403.8" y="91" class="st0" width="99.2" height="17"/>
	<rect id="_x36_00ma_slot_1_" x="403.8" y="239.2" class="st0" width="99.2" height="17"/>
	<g>
		<path class="st2" d="M390,54.8c-0.2,0-0.5,0-0.8,0c-1.7,0.3-2.5,1.5-2.7,2.8h0c0.4-0.5,1-0.9,1.9-0.9c1.4,0,2.4,1,2.4,2.5
			c0,1.4-1,2.7-2.6,2.7c-1.7,0-2.8-1.3-2.8-3.3c0-1.5,0.6-2.7,1.3-3.5c0.6-0.6,1.5-1,2.5-1.2c0.3,0,0.6-0.1,0.8-0.1V54.8z
			 M389.7,59.3c0-1.1-0.6-1.8-1.6-1.8c-0.6,0-1.2,0.4-1.5,1c-0.1,0.1-0.1,0.3-0.1,0.5c0,1.3,0.6,2.2,1.7,2.2
			C389.1,61.2,389.7,60.4,389.7,59.3z"/>
		<path class="st2" d="M396.9,57.9c0,2.7-1,4.1-2.7,4.1c-1.5,0-2.6-1.4-2.6-4c0-2.6,1.1-4.1,2.7-4.1C396,53.9,396.9,55.4,396.9,57.9
			z M392.7,58c0,2,0.6,3.2,1.6,3.2c1.1,0,1.6-1.3,1.6-3.3c0-1.9-0.5-3.2-1.6-3.2C393.4,54.8,392.7,55.9,392.7,58z"/>
		<path class="st2" d="M403.1,57.9c0,2.7-1,4.1-2.7,4.1c-1.5,0-2.6-1.4-2.6-4c0-2.6,1.1-4.1,2.7-4.1
			C402.1,53.9,403.1,55.4,403.1,57.9z M398.8,58c0,2,0.6,3.2,1.6,3.2c1.1,0,1.6-1.3,1.6-3.3c0-1.9-0.5-3.2-1.6-3.2
			C399.5,54.8,398.8,55.9,398.8,58z"/>
		<path class="st2" d="M404.4,57.6c0-0.6,0-1.1,0-1.6h0.9l0,0.9h0c0.3-0.6,0.9-1.1,1.8-1.1c0.8,0,1.4,0.5,1.6,1.2h0
			c0.2-0.3,0.4-0.6,0.6-0.8c0.3-0.3,0.7-0.4,1.3-0.4c0.8,0,1.9,0.5,1.9,2.5v3.4h-1v-3.3c0-1.1-0.4-1.8-1.3-1.8c-0.6,0-1.1,0.4-1.2,1
			c0,0.1-0.1,0.3-0.1,0.5v3.6h-1v-3.5c0-0.9-0.4-1.6-1.2-1.6c-0.7,0-1.1,0.5-1.3,1.1c-0.1,0.2-0.1,0.3-0.1,0.5v3.5h-1V57.6z"/>
		<path class="st2" d="M415.7,59.3l-0.8,2.5h-1.1l2.7-8.1h1.3l2.8,8.1h-1.1l-0.9-2.5H415.7z M418.4,58.5l-0.8-2.3
			c-0.2-0.5-0.3-1-0.4-1.5h0c-0.1,0.5-0.3,1-0.4,1.5l-0.8,2.3H418.4z"/>
	</g>
	<g>
		<path class="st2" d="M370.4,269.5h-3l-0.3,2c0.2,0,0.3,0,0.6,0c0.6,0,1.2,0.1,1.7,0.4c0.6,0.3,1.1,1,1.1,2c0,1.5-1.2,2.7-2.9,2.7
			c-0.9,0-1.6-0.2-1.9-0.5l0.3-0.8c0.3,0.2,1,0.4,1.7,0.4c1,0,1.8-0.6,1.8-1.7c0-1-0.7-1.7-2.2-1.7c-0.4,0-0.8,0-1.1,0.1l0.5-3.7
			h3.7V269.5z"/>
		<path class="st2" d="M377.1,272.4c0,2.7-1,4.1-2.7,4.1c-1.5,0-2.6-1.4-2.6-4c0-2.6,1.1-4.1,2.7-4.1
			C376.2,268.4,377.1,269.9,377.1,272.4z M372.9,272.5c0,2,0.6,3.2,1.6,3.2c1.1,0,1.6-1.3,1.6-3.3c0-1.9-0.5-3.2-1.6-3.2
			C373.5,269.3,372.9,270.4,372.9,272.5z"/>
		<path class="st2" d="M383.3,272.4c0,2.7-1,4.1-2.7,4.1c-1.5,0-2.6-1.4-2.6-4c0-2.6,1.1-4.1,2.7-4.1
			C382.3,268.4,383.3,269.9,383.3,272.4z M379,272.5c0,2,0.6,3.2,1.6,3.2c1.1,0,1.6-1.3,1.6-3.3c0-1.9-0.5-3.2-1.6-3.2
			C379.7,269.3,379,270.4,379,272.5z"/>
		<path class="st2" d="M384.6,272.1c0-0.6,0-1.1,0-1.6h0.9l0,0.9h0c0.3-0.6,0.9-1.1,1.8-1.1c0.8,0,1.4,0.5,1.6,1.2h0
			c0.2-0.3,0.4-0.6,0.6-0.8c0.3-0.3,0.7-0.4,1.3-0.4c0.8,0,1.9,0.5,1.9,2.5v3.4h-1v-3.3c0-1.1-0.4-1.8-1.3-1.8c-0.6,0-1.1,0.4-1.2,1
			c0,0.1-0.1,0.3-0.1,0.5v3.6h-1v-3.5c0-0.9-0.4-1.6-1.2-1.6c-0.7,0-1.1,0.5-1.3,1.1c-0.1,0.2-0.1,0.3-0.1,0.5v3.5h-1V272.1z"/>
		<path class="st2" d="M395.9,273.8l-0.8,2.5H394l2.7-8.1h1.3l2.8,8.1h-1.1l-0.9-2.5H395.9z M398.6,273l-0.8-2.3
			c-0.2-0.5-0.3-1-0.4-1.5h0c-0.1,0.5-0.3,1-0.4,1.5l-0.8,2.3H398.6z"/>
		<path class="st2" d="M404.7,276.4l0.3-2.4h-1v-0.7h1.1l0.2-1.7h-1v-0.7h1.1l0.3-2.3h0.7l-0.3,2.3h1.2l0.3-2.3h0.7l-0.3,2.3h1v0.7
			H408l-0.2,1.7h1v0.7h-1.1l-0.3,2.4h-0.7l0.3-2.4h-1.2l-0.3,2.4H404.7z M407.1,273.3l0.2-1.7h-1.2l-0.2,1.7H407.1z"/>
		<path class="st2" d="M412.4,269.6L412.4,269.6l-1.4,0.7l-0.2-0.8l1.7-0.9h0.9v7.8h-1V269.6z"/>
		<path class="st2" d="M420.9,269.5h-3l-0.3,2c0.2,0,0.3,0,0.6,0c0.6,0,1.2,0.1,1.7,0.4c0.6,0.3,1.1,1,1.1,2c0,1.5-1.2,2.7-2.9,2.7
			c-0.9,0-1.6-0.2-1.9-0.5l0.3-0.8c0.3,0.2,1,0.4,1.7,0.4c1,0,1.8-0.6,1.8-1.7c0-1-0.7-1.7-2.2-1.7c-0.4,0-0.8,0-1.1,0.1l0.5-3.7
			h3.7V269.5z"/>
		<path class="st2" d="M427.5,268.6v0.7l-3.4,7.1H423l3.4-6.9v0h-3.8v-0.9H427.5z"/>
		<path class="st2" d="M428.5,274.4c0-1,0.6-1.7,1.5-2.1l0,0c-0.9-0.4-1.2-1.1-1.2-1.8c0-1.2,1-2.1,2.4-2.1c1.5,0,2.3,0.9,2.3,1.9
			c0,0.7-0.3,1.4-1.3,1.8v0c1,0.4,1.6,1.1,1.6,2c0,1.4-1.2,2.3-2.7,2.3C429.5,276.5,428.5,275.5,428.5,274.4z M432.7,274.4
			c0-0.9-0.7-1.4-1.7-1.7c-0.9,0.3-1.4,0.9-1.4,1.6c0,0.8,0.6,1.5,1.6,1.5C432.1,275.7,432.7,275.2,432.7,274.4z M429.8,270.5
			c0,0.8,0.6,1.2,1.5,1.4c0.7-0.2,1.2-0.7,1.2-1.4c0-0.6-0.4-1.3-1.3-1.3C430.2,269.2,429.8,269.8,429.8,270.5z"/>
		<path class="st2" d="M435.1,268.4c0.5-0.1,1.2-0.2,1.9-0.2c1,0,1.7,0.2,2.2,0.6c0.4,0.3,0.7,0.8,0.7,1.4c0,0.8-0.5,1.5-1.4,1.8v0
			c0.8,0.2,1.7,0.8,1.7,2c0,0.7-0.3,1.2-0.7,1.6c-0.6,0.5-1.5,0.8-2.8,0.8c-0.7,0-1.3,0-1.6-0.1V268.4z M436.1,271.7h0.9
			c1.1,0,1.8-0.6,1.8-1.4c0-0.9-0.7-1.3-1.8-1.3c-0.5,0-0.8,0-0.9,0.1V271.7z M436.1,275.6c0.2,0,0.5,0,0.9,0c1.1,0,2.1-0.4,2.1-1.6
			c0-1.1-0.9-1.6-2.1-1.6h-0.9V275.6z"/>
	</g>
	<rect id="_x35_00ma_slot_4_" x="293.6" y="283.8" class="st0" width="85" height="14.2"/>
	<rect id="_x35_00ma_slot_1_" x="405.3" y="283.5" class="st0" width="85" height="14.2"/>
</g>
<g id="glue_frame">
</g>
<g id="glue_bottles">
</g>
</svg>
